<svg width="36" height="36" viewBox="0 0 36 36" fill="none" xmlns="http://www.w3.org/2000/svg">
<path d="M17.8335 0.685638C8.1735 0.685638 0.333496 8.52564 0.333496 18.1856C0.333496 27.8456 8.1735 35.6856 17.8335 35.6856C27.4935 35.6856 35.3335 27.8456 35.3335 18.1856C35.3335 8.52564 27.4935 0.685638 17.8335 0.685638ZM9.206 29.1756C9.9585 27.6006 14.5435 26.0606 17.8335 26.0606C21.1235 26.0606 25.726 27.6006 26.461 29.1756C24.081 31.0656 21.0885 32.1856 17.8335 32.1856C14.5785 32.1856 11.586 31.0656 9.206 29.1756ZM28.9635 26.6381C26.461 23.5931 20.3885 22.5606 17.8335 22.5606C15.2785 22.5606 9.206 23.5931 6.7035 26.6381C4.9185 24.2931 3.8335 21.3706 3.8335 18.1856C3.8335 10.4681 10.116 4.18564 17.8335 4.18564C25.551 4.18564 31.8335 10.4681 31.8335 18.1856C31.8335 21.3706 30.7485 24.2931 28.9635 26.6381ZM17.8335 7.68564C14.4385 7.68564 11.7085 10.4156 11.7085 13.8106C11.7085 17.2056 14.4385 19.9356 17.8335 19.9356C21.2285 19.9356 23.9585 17.2056 23.9585 13.8106C23.9585 10.4156 21.2285 7.68564 17.8335 7.68564ZM17.8335 16.4356C16.381 16.4356 15.2085 15.2631 15.2085 13.8106C15.2085 12.3581 16.381 11.1856 17.8335 11.1856C19.286 11.1856 20.4585 12.3581 20.4585 13.8106C20.4585 15.2631 19.286 16.4356 17.8335 16.4356Z" fill="white"/>
</svg>
