<svg width="24" height="25" viewBox="0 0 24 25" fill="none" xmlns="http://www.w3.org/2000/svg">
<path d="M4.99422 4.40637C4.73832 4.40637 4.47072 4.49238 4.27542 4.68738C3.88492 5.07838 3.88492 5.73437 4.27542 6.12537L10.5567 12.4064L4.27542 18.6874C3.88492 19.0784 3.88492 19.7344 4.27542 20.1254C4.66602 20.5154 5.32242 20.5154 5.71302 20.1254L11.9942 13.8444L18.2754 20.1254C18.666 20.5154 19.3224 20.5154 19.713 20.1254C20.1035 19.7344 20.1035 19.0784 19.713 18.6874L13.4317 12.4064L19.713 6.12537C20.1035 5.73437 20.1035 5.07838 19.713 4.68738C19.5177 4.49238 19.25 4.40637 18.9942 4.40637C18.7383 4.40637 18.4708 4.49238 18.2754 4.68738L11.9942 10.9684L5.71302 4.68738C5.51772 4.49238 5.25012 4.40637 4.99422 4.40637Z" fill="white"/>
</svg>
