<svg width="375" height="375" viewBox="0 0 375 375" fill="none" xmlns="http://www.w3.org/2000/svg">
<mask id="path-1-inside-1_1449_17667" fill="white">
<path d="M0 0H125V125H0V0Z"/>
</mask>
<path d="M0 0V-1H-1V0H0ZM125 0H125.5V-1H125V0ZM125 125V125.5H125.5V125H125ZM0 125H-1V125.5H0V125ZM0 1H125V-1H0V1ZM124.5 0V125H125.5V0H124.5ZM125 124.5H0V125.5H125V124.5ZM1 125V0H-1V125H1Z" fill="white" mask="url(#path-1-inside-1_1449_17667)"/>
<mask id="path-3-inside-2_1449_17667" fill="white">
<path d="M125 0H250V125H125V0Z"/>
</mask>
<path d="M125 0V-1H124.5V0H125ZM250 0H250.5V-1H250V0ZM250 125V125.5H250.5V125H250ZM125 125H124.5V125.5H125V125ZM125 1H250V-1H125V1ZM249.5 0V125H250.5V0H249.5ZM250 124.5H125V125.5H250V124.5ZM125.5 125V0H124.5V125H125.5Z" fill="white" mask="url(#path-3-inside-2_1449_17667)"/>
<mask id="path-5-inside-3_1449_17667" fill="white">
<path d="M250 0H375V125H250V0Z"/>
</mask>
<path d="M250 0V-1H249.5V0H250ZM375 0H376V-1H375V0ZM375 125V125.5H376V125H375ZM250 125H249.5V125.5H250V125ZM250 1H375V-1H250V1ZM374 0V125H376V0H374ZM375 124.5H250V125.5H375V124.5ZM250.5 125V0H249.5V125H250.5Z" fill="white" mask="url(#path-5-inside-3_1449_17667)"/>
<line x1="1.5" x2="1.5" y2="27" stroke="white" stroke-width="3"/>
<line x1="27" y1="1.5" y2="1.5" stroke="white" stroke-width="3"/>
<line x1="375" y1="1.5" x2="348" y2="1.5" stroke="white" stroke-width="3"/>
<line x1="373.5" y1="27" x2="373.5" stroke="white" stroke-width="3"/>
<mask id="path-11-inside-4_1449_17667" fill="white">
<path d="M375 375H250V250H375V375Z"/>
</mask>
<path d="M375 375V376H376V375H375ZM250 375H249.5V376H250V375ZM250 250V249.5H249.5V250H250ZM375 250H376V249.5H375V250ZM375 374H250V376H375V374ZM250.5 375V250H249.5V375H250.5ZM250 250.5H375V249.5H250V250.5ZM374 250V375H376V250H374Z" fill="white" mask="url(#path-11-inside-4_1449_17667)"/>
<mask id="path-13-inside-5_1449_17667" fill="white">
<path d="M250 375H125L125 250H250L250 375Z"/>
</mask>
<path d="M250 375V376H250.5V375H250ZM125 375H124.5V376H125V375ZM125 250V249.5H124.5V250H125ZM250 250H250.5V249.5H250V250ZM250 374H125V376H250V374ZM125.5 375L125.5 250H124.5L124.5 375H125.5ZM125 250.5H250V249.5H125V250.5ZM249.5 250L249.5 375H250.5L250.5 250H249.5Z" fill="white" mask="url(#path-13-inside-5_1449_17667)"/>
<mask id="path-15-inside-6_1449_17667" fill="white">
<path d="M125 375H0L0 250H125L125 375Z"/>
</mask>
<path d="M125 375V376H125.5V375H125ZM0 375H-1V376H0V375ZM0 250V249.5H-1V250H0ZM125 250H125.5V249.5H125V250ZM125 374H0V376H125V374ZM1 375L1 250H-1L-1 375H1ZM0 250.5H125V249.5H0V250.5ZM124.5 250L124.5 375H125.5L125.5 250H124.5Z" fill="white" mask="url(#path-15-inside-6_1449_17667)"/>
<line x1="373.5" y1="375" x2="373.5" y2="348" stroke="white" stroke-width="3"/>
<line x1="348" y1="373.5" x2="375" y2="373.5" stroke="white" stroke-width="3"/>
<line y1="373.5" x2="27" y2="373.5" stroke="white" stroke-width="3"/>
<line x1="1.5" y1="348" x2="1.5" y2="375" stroke="white" stroke-width="3"/>
<line x1="174" y1="373.5" x2="201" y2="373.5" stroke="white" stroke-width="3"/>
<mask id="path-22-inside-7_1449_17667" fill="white">
<path d="M0 125H125V250H0V125Z"/>
</mask>
<path d="M0 125V124.5H-1V125H0ZM125 125H125.5V124.5H125V125ZM125 250V250.5H125.5V250H125ZM0 250H-1V250.5H0V250ZM0 125.5H125V124.5H0V125.5ZM124.5 125V250H125.5V125H124.5ZM125 249.5H0V250.5H125V249.5ZM1 250V125H-1V250H1Z" fill="white" mask="url(#path-22-inside-7_1449_17667)"/>
<mask id="path-24-inside-8_1449_17667" fill="white">
<path d="M125 125H250V250H125V125Z"/>
</mask>
<path d="M125 125V124.5H124.5V125H125ZM250 125H250.5V124.5H250V125ZM250 250V250.5H250.5V250H250ZM125 250H124.5V250.5H125V250ZM125 125.5H250V124.5H125V125.5ZM249.5 125V250H250.5V125H249.5ZM250 249.5H125V250.5H250V249.5ZM125.5 250V125H124.5V250H125.5Z" fill="white" mask="url(#path-24-inside-8_1449_17667)"/>
<mask id="path-26-inside-9_1449_17667" fill="white">
<path d="M250 125H375V250H250V125Z"/>
</mask>
<path d="M250 125V124.5H249.5V125H250ZM375 125H376V124.5H375V125ZM375 250V250.5H376V250H375ZM250 250H249.5V250.5H250V250ZM250 125.5H375V124.5H250V125.5ZM374 125V250H376V125H374ZM375 249.5H250V250.5H375V249.5ZM250.5 250V125H249.5V250H250.5Z" fill="white" mask="url(#path-26-inside-9_1449_17667)"/>
<line x1="1.5" y1="201" x2="1.5" y2="174" stroke="white" stroke-width="3"/>
<line x1="373.5" y1="201" x2="373.5" y2="174" stroke="white" stroke-width="3"/>
<line x1="174" y1="1.5" x2="201" y2="1.5" stroke="white" stroke-width="3"/>
</svg>
