<svg width="214" height="111" viewBox="0 0 214 111" fill="none" xmlns="http://www.w3.org/2000/svg">
<g id="Vector" filter="url(#filter0_d_373_40)">
<path fill-rule="evenodd" clip-rule="evenodd" d="M30.7308 17.7288C29.9434 23.3132 28.9933 25.9856 27.2036 27.6499C25.4935 29.2404 23.0615 30.048 17.569 30.8496C16.6468 30.9841 15.9424 31.1118 16.0037 31.1332C16.065 31.1546 16.55 31.2286 17.0813 31.2975C18.7095 31.5089 21.0395 31.9222 22.15 32.1966C26.2606 33.2123 28.1126 34.7037 29.3285 37.9774C29.8537 39.3916 30.4669 42.3404 30.8376 45.2338C30.9097 45.7975 30.983 46.2444 31.0004 46.227C31.0177 46.2096 31.1462 45.3958 31.2859 44.4186C32.3573 36.9242 33.7169 34.4278 37.5611 32.8967C39.0008 32.3233 42.3291 31.6071 45.1733 31.2588C45.5412 31.2138 45.8924 31.1574 45.9537 31.1337C46.015 31.11 45.5301 31.0129 44.8761 30.9178C38.7379 30.0261 36.3098 29.1981 34.5746 27.4051C32.8875 25.6617 32.0857 23.3118 31.2804 17.7508C31.143 16.8025 31.0189 16.0146 31.0045 16.0002C30.9901 15.9857 30.867 16.7636 30.7308 17.7288ZM52.8133 34.2844C47.3552 34.9763 42.448 37.6063 39.4409 41.4515C36.1183 45.7001 35.0112 51.7905 36.5449 57.381C38.3818 64.0762 44.1418 68.8846 51.9183 70.2146C57.5911 71.1849 63.926 69.5541 68.3242 65.9913C71.1767 63.6806 73.1484 60.6539 74.0506 57.2005C74.527 55.3769 74.6012 54.7178 74.6012 52.3062C74.6012 49.8521 74.5171 49.1374 74.0096 47.2778C72.7411 42.6299 69.5432 38.8075 64.9872 36.4933C62.8803 35.423 60.8353 34.7666 58.3144 34.3514C57.2873 34.1822 53.941 34.1415 52.8133 34.2844ZM92.3508 34.2486C90.2813 34.4023 87.9223 34.8843 86.3452 35.4757C82.6877 36.8472 80.4312 39.1211 79.6467 42.2257C79.1046 44.3713 79.2837 46.6246 80.1367 48.3882C81.3272 50.8497 83.6545 52.4285 87.8439 53.6165C89.2775 54.0231 90.8857 54.3534 94.1911 54.9201C99.7564 55.8741 101.399 56.3156 102.916 57.2653C104.277 58.1174 104.831 59.2437 104.656 60.808C104.535 61.898 104.179 62.6636 103.475 63.3513C102.256 64.542 100.408 65.096 97.6415 65.1001C96.2557 65.1023 95.7582 65.0362 94.2972 64.6561C93.2283 64.378 92.6092 64.1611 90.4699 63.3155C87.3859 62.0967 86.0769 61.7577 84.4501 61.7568C83.6488 61.7564 83.3152 61.7903 82.7929 61.9252C81.9352 62.1467 81.2002 62.4559 80.5223 62.8801L79.9717 63.2248L80.0181 63.7171C80.0435 63.9879 80.0646 65.4132 80.0649 66.8844L80.0654 69.5591L80.5299 69.0959C81.1255 68.5018 81.7572 68.0497 82.4502 67.7215C83.251 67.3422 83.7614 67.232 84.7177 67.232C86.171 67.232 87.0406 67.4663 90.0804 68.6771C91.0652 69.0693 92.2042 69.5068 92.6116 69.6492C93.5786 69.9871 95.2296 70.3998 96.118 70.5256C96.98 70.6476 99.2231 70.6457 100.243 70.5221C105.459 69.8895 109.2 67.422 110.508 63.751C110.895 62.6665 111.054 61.8187 111.103 60.59C111.267 56.4027 109.234 53.5738 104.806 51.8314C102.771 51.0308 100.668 50.537 95.8579 49.7313C94.0594 49.4301 92.3204 49.1284 91.9934 49.061C88.4432 48.3294 86.6754 47.4422 85.9931 46.0496C85.7655 45.5851 85.7508 45.5069 85.7523 44.77C85.7541 43.9324 85.8693 43.4424 86.2017 42.858C87.7336 40.1642 92.6253 39.0675 98.6267 40.0722C102.066 40.648 105.421 41.9835 107.166 43.4715C107.377 43.6514 107.567 43.7985 107.588 43.7985C107.609 43.7985 108.349 42.7553 109.232 41.4803L110.838 39.1621L110.668 39.0152C110.149 38.5655 108.561 37.5879 107.526 37.0799C104.646 35.6674 101.318 34.7549 97.6043 34.3598C96.2611 34.2168 93.5512 34.1595 92.3508 34.2486ZM116.704 52.3062V69.5455H119.714H122.724V67.6836C122.724 65.5878 122.823 64.5874 123.165 63.2561C124.054 59.7968 126.389 56.7253 130.314 53.8542C130.748 53.5364 131.124 53.2764 131.15 53.2764C131.175 53.2764 131.196 53.3252 131.196 53.3849C131.196 53.5917 131.857 55.7808 132.199 56.7093C132.934 58.6986 134.221 61.0322 135.431 62.5677C136.12 63.4424 137.585 64.8724 138.479 65.5431C141.021 67.4498 144.017 68.6543 147.596 69.2077C149.531 69.5071 150.496 69.5455 156.07 69.5455H161.369V54.5824C161.369 42.6613 161.388 39.6193 161.462 39.6198C161.798 39.6216 162.925 39.9746 163.49 40.2552C164.745 40.8771 165.577 41.7283 166.299 43.1268C167.362 45.1858 167.729 47.2096 168.132 53.239C168.373 56.8409 168.551 58.4426 168.915 60.2641C169.864 65.0268 172.06 67.808 175.766 68.9412C177 69.3187 178.508 69.5489 179.704 69.5423L180.283 69.5391L185.894 58.084L191.505 46.6289L191.523 58.0872L191.542 69.5455H194.552H197.561V52.3054V35.0652L194.544 35.0847L191.527 35.1042L184.394 49.1344C180.47 56.8511 177.246 63.1787 177.229 63.1959C177.099 63.3273 175.866 62.2152 175.382 61.53C174.027 59.6122 173.457 57.1155 173.039 51.2614C172.769 47.4777 172.564 45.659 172.22 43.9881C171.29 39.4657 169.251 36.8374 165.796 35.7051C164.173 35.1735 162.997 35.0669 158.755 35.0669H155.349V49.6569V64.2468L153.621 64.2461C152.671 64.2456 151.492 64.2104 151.001 64.1677C143.184 63.4876 138.507 59.7562 136.412 52.5278C135.962 50.9729 135.842 50.3678 135.964 50.2552C136.019 50.2043 136.85 49.6907 137.81 49.1141C141.764 46.7408 143.509 45.4757 145.242 43.7287C145.876 43.0898 146.587 42.2941 146.822 41.9605C147.686 40.7358 148.296 39.3358 148.583 37.9168C148.751 37.0859 148.853 35.7371 148.779 35.3387L148.728 35.0669H145.722H142.715V35.3973C142.715 36.3695 142.375 37.6987 141.87 38.7021C141.065 40.3021 139.461 41.948 137.178 43.5172C136.006 44.3231 135.136 44.8506 132.162 46.5605C130.711 47.3947 129.139 48.3124 128.669 48.6C126.681 49.8159 124.657 51.2684 123.411 52.3725L122.724 52.9817V44.0242V35.0669H119.714H116.704V52.3062ZM54.1583 39.8496C51.8067 40.0202 49.2625 40.8976 47.2914 42.2177C44.2916 44.2268 42.4932 47.1952 42.0834 50.8136C41.9639 51.8683 42.0377 53.9074 42.2296 54.8548C42.9919 58.6195 45.3898 61.6393 49.0007 63.3819C53.0552 65.3386 57.7306 65.2997 61.7462 63.2758C63.1305 62.5781 64.007 61.9414 65.1329 60.8154C66.1702 59.7781 66.8286 58.8614 67.3883 57.6749C68.541 55.2313 68.8439 52.3545 68.2497 49.4939C67.2765 44.809 63.3637 41.1618 58.1747 40.1028C57.4221 39.9491 55.4787 39.7454 55.0947 39.7799C55.0334 39.7853 54.612 39.8167 54.1583 39.8496ZM115.208 79.3967C113.723 79.6338 112.556 80.4486 111.984 81.6482C111.543 82.5713 111.549 83.0063 112.008 83.517C112.348 83.896 112.642 84.0235 113.174 84.0235C113.84 84.0235 114.268 83.7478 114.508 83.1653C114.78 82.5048 115.328 82.1611 116.109 82.1611C116.836 82.1611 117.417 82.4897 117.715 83.0686C117.966 83.5555 117.907 84.8967 117.59 85.9278C117.323 86.7959 116.217 88.2703 115.058 89.3035C114.384 89.9046 113.092 90.8791 112.228 91.4387C111.471 91.9281 111.2 92.2774 111.147 92.8274C111.09 93.4215 111.18 93.7053 111.549 94.1018C112.112 94.7059 112.029 94.6955 116.281 94.6955C118.894 94.6955 120.08 94.6697 120.283 94.6085C120.706 94.4811 121.138 93.9817 121.203 93.5435C121.302 92.88 120.859 92.1924 120.217 92.0133C120.054 91.9676 119.102 91.9349 117.935 91.9347L115.933 91.9342L117.123 90.7215C118.871 88.9406 119.614 87.9376 120.206 86.5572C120.658 85.5059 120.819 84.7919 120.819 83.837C120.82 82.8989 120.702 82.4027 120.295 81.6224C119.778 80.6294 118.705 79.8222 117.484 79.5066C116.932 79.3639 115.766 79.3076 115.208 79.3967ZM142.78 79.3967C141.295 79.6338 140.128 80.4486 139.555 81.6482C139.115 82.5713 139.12 83.0063 139.579 83.517C139.92 83.896 140.214 84.0235 140.746 84.0235C141.412 84.0235 141.84 83.7478 142.08 83.1653C142.352 82.5048 142.9 82.1611 143.681 82.1611C144.407 82.1611 144.989 82.4897 145.287 83.0686C145.538 83.5555 145.479 84.8967 145.162 85.9278C144.895 86.7959 143.789 88.2703 142.63 89.3035C141.956 89.9046 140.664 90.8791 139.799 91.4387C139.043 91.9281 138.772 92.2774 138.719 92.8274C138.662 93.4215 138.752 93.7053 139.121 94.1018C139.684 94.7059 139.6 94.6955 143.853 94.6955C146.466 94.6955 147.651 94.6697 147.855 94.6085C148.278 94.4811 148.71 93.9817 148.775 93.5435C148.874 92.88 148.431 92.1924 147.789 92.0133C147.626 91.9676 146.674 91.9349 145.507 91.9347L143.505 91.9342L144.695 90.7215C146.443 88.9406 147.186 87.9376 147.778 86.5572C148.23 85.5059 148.39 84.7919 148.391 83.837C148.391 82.8989 148.274 82.4027 147.867 81.6224C147.35 80.6294 146.277 79.8222 145.056 79.5066C144.504 79.3639 143.338 79.3076 142.78 79.3967ZM71.261 79.6647C70.8857 79.8027 70.5718 80.0983 70.3964 80.4786C70.2658 80.7618 70.2588 81.1034 70.2588 87.1206C70.2588 93.0971 70.2666 93.4814 70.3941 93.7633C70.6505 94.33 71.2401 94.6964 71.8905 94.6934C72.4408 94.6909 73.1148 94.1932 73.2926 93.6582C73.4139 93.293 73.4117 80.9858 73.2902 80.5787C73.2386 80.4057 73.0764 80.1706 72.8892 79.9973C72.4158 79.5591 71.8582 79.4452 71.261 79.6647ZM77.4584 79.6468C76.4501 80.0127 76.1114 81.1298 76.7823 81.8765C77.2177 82.3611 77.3181 82.3817 79.2455 82.3817H80.9572V87.7513C80.9572 91.4606 80.9832 93.2432 81.0412 93.5164C81.2787 94.6346 82.7282 95.0771 83.6092 94.3002C84.1776 93.799 84.1494 94.1309 84.1512 87.9229L84.1529 82.3817H85.9395C87.5661 82.3817 87.7516 82.3686 88.011 82.2357C88.6116 81.928 88.9267 81.2814 88.769 80.6801C88.6503 80.2276 88.4932 80.0175 88.0997 79.7853L87.7573 79.5831L82.7409 79.5667C78.7915 79.5538 77.6679 79.5708 77.4584 79.6468ZM93.8696 79.6232C93.0983 79.8156 92.3679 80.4096 92.0375 81.113L91.8447 81.5235L91.8467 87.046C91.8486 92.1442 91.8589 92.5983 91.9811 92.9553C92.2511 93.7443 92.8959 94.3338 93.7621 94.5838C94.1386 94.6925 94.533 94.7043 96.8834 94.6774C99.3317 94.6494 99.6249 94.6324 100.142 94.4895C102.14 93.9372 103.172 92.5451 103.177 90.3976C103.178 89.6958 102.967 88.7745 102.7 88.3169C102.48 87.9388 101.954 87.4424 101.569 87.2481C101.287 87.1057 100.752 86.9227 100.317 86.8199C100.095 86.7676 100.096 86.7665 100.466 86.6374C101.077 86.4243 101.464 86.1969 101.816 85.8431C102.456 85.2001 102.794 84.0961 102.693 82.9787C102.534 81.2279 101.682 80.2369 99.9196 79.753C99.4016 79.6106 99.1187 79.5948 96.7497 79.5752C95.307 79.5633 94.0243 79.5846 93.8696 79.6232ZM129.004 79.6511C126.409 80.1605 124.741 82.228 124.251 85.5398C123.869 88.1193 124.356 90.8234 125.518 92.5814C126.287 93.7446 127.528 94.62 128.781 94.8824C130.051 95.1487 131.53 94.9552 132.636 94.378C133.338 94.0115 134.273 93.1224 134.676 92.4389C135.745 90.6262 136.172 88.1314 135.842 85.6363C135.574 83.6155 134.881 82.1138 133.694 80.982C133.091 80.4063 132.251 79.9363 131.456 79.73C130.823 79.5656 129.634 79.5274 129.004 79.6511ZM152.784 79.7244C152.509 79.8445 152.098 80.3019 152.034 80.5587C151.945 80.9134 152.047 81.4669 152.249 81.7337C152.643 82.2518 152.721 82.2655 155.509 82.3071L158.011 82.3444L155.937 84.5348C154.255 86.3113 153.863 86.7639 153.863 86.93C153.863 87.3281 153.989 87.3629 155.572 87.4017C157.248 87.4428 157.523 87.5103 158.088 88.0209C158.723 88.5937 158.973 89.5141 158.741 90.4225C158.46 91.5256 157.615 92.2335 156.581 92.2323C155.779 92.2315 155.195 91.8909 154.785 91.1868C154.465 90.6379 154.069 90.4065 153.454 90.4091C152.629 90.4127 152.045 90.9101 151.961 91.6799C151.926 91.9945 151.958 92.1235 152.186 92.5949C152.68 93.6134 153.539 94.2996 154.831 94.7071C155.315 94.8595 155.535 94.8818 156.538 94.8806C157.633 94.8792 157.722 94.8678 158.331 94.6503C159.905 94.0877 160.941 92.9895 161.455 91.3372C161.6 90.8708 161.629 90.6156 161.629 89.8073C161.629 88.9469 161.605 88.7653 161.422 88.2028C161.163 87.4109 160.651 86.6419 160.069 86.1706C159.572 85.7675 158.708 85.3792 158.166 85.3148C157.963 85.2907 157.784 85.25 157.769 85.2244C157.753 85.1988 158.439 84.5604 159.293 83.8057C161.015 82.2842 161.146 82.1137 161.146 81.3855C161.146 80.6337 160.822 80.1206 160.143 79.7983L159.771 79.6219L156.389 79.6241C153.762 79.6258 152.958 79.6482 152.784 79.7244ZM94.7803 84.0982V85.8893H96.4389C98.271 85.8893 98.6421 85.8285 99.2113 85.4351C99.6266 85.1483 99.8339 84.7093 99.8339 84.1167C99.8339 83.3659 99.5987 82.9807 98.9318 82.6389C98.4315 82.3825 97.8215 82.3083 96.2109 82.3077L94.7803 82.3071V84.0982ZM129.241 82.4851C127.99 82.9524 127.297 84.3399 127.149 86.6748C127.022 88.6711 127.473 90.5422 128.297 91.4396C128.747 91.9297 129.179 92.114 129.956 92.1461C130.568 92.1715 130.644 92.1576 131.082 91.9411C131.66 91.6551 132.028 91.2571 132.353 90.5632C132.686 89.854 132.817 89.3157 132.92 88.2275C133.016 87.2112 132.925 85.7602 132.714 84.9564C132.431 83.8757 131.809 82.9602 131.111 82.598C130.701 82.385 129.675 82.323 129.241 82.4851ZM94.8138 88.148C94.794 88.2001 94.7866 89.0984 94.7975 90.1444L94.8174 92.0462L96.1552 92.0674C98.2699 92.101 99.1587 91.9261 99.7144 91.367C100.329 90.7486 100.379 89.5994 99.8207 88.9193C99.5322 88.5678 98.8044 88.2218 98.1617 88.1304C97.3652 88.0172 94.8588 88.0304 94.8138 88.148Z" fill="#FFFC83"/>
</g>
<defs>
<filter id="filter0_d_373_40" x="0.491761" y="0.491761" width="212.578" height="110.016" filterUnits="userSpaceOnUse" color-interpolation-filters="sRGB">
<feFlood flood-opacity="0" result="BackgroundImageFix"/>
<feColorMatrix in="SourceAlpha" type="matrix" values="0 0 0 0 0 0 0 0 0 0 0 0 0 0 0 0 0 0 127 0" result="hardAlpha"/>
<feOffset/>
<feGaussianBlur stdDeviation="7.75412"/>
<feComposite in2="hardAlpha" operator="out"/>
<feColorMatrix type="matrix" values="0 0 0 0 0.447059 0 0 0 0 0.847059 0 0 0 0 0.729412 0 0 0 1 0"/>
<feBlend mode="normal" in2="BackgroundImageFix" result="effect1_dropShadow_373_40"/>
<feBlend mode="normal" in="SourceGraphic" in2="effect1_dropShadow_373_40" result="shape"/>
</filter>
</defs>
</svg>
