<svg width="216" height="24" viewBox="0 0 216 24" fill="none" xmlns="http://www.w3.org/2000/svg">
<path d="M196.994 3.90637C196.738 3.90637 196.471 3.99238 196.275 4.18738C195.885 4.57838 195.885 5.23437 196.275 5.62537L202.557 11.9064L196.275 18.1874C195.885 18.5784 195.885 19.2344 196.275 19.6254C196.666 20.0154 197.322 20.0154 197.713 19.6254L203.994 13.3444L210.275 19.6254C210.666 20.0154 211.322 20.0154 211.713 19.6254C212.104 19.2344 212.104 18.5784 211.713 18.1874L205.432 11.9064L211.713 5.62537C212.104 5.23437 212.104 4.57838 211.713 4.18738C211.518 3.99238 211.25 3.90637 210.994 3.90637C210.738 3.90637 210.471 3.99238 210.275 4.18738L203.994 10.4684L197.713 4.18738C197.518 3.99238 197.25 3.90637 196.994 3.90637Z" fill="white"/>
</svg>
