<svg xmlns="http://www.w3.org/2000/svg" xmlns:xlink="http://www.w3.org/1999/xlink" version="1.1" width="1000" height="1000" viewBox="0 0 1000 1000" xml:space="preserve">
<desc>Created with Fabric.js 3.5.0</desc>
<defs>
</defs>
<rect x="0" y="0" width="100%" height="100%" fill="#ffffff"/>
<g transform="matrix(2.6657 0 0 2.6657 499.8188 502.4845)" id="206956">
<g style="" vector-effect="non-scaling-stroke">
		<g transform="matrix(1 0 0 1 0 0)" id="WF Image Placeholder">
<rect style="stroke: none; stroke-width: 1; stroke-dasharray: none; stroke-linecap: butt; stroke-dashoffset: 0; stroke-linejoin: miter; stroke-miterlimit: 4; is-custom-font: none; font-file-url: none; fill: rgb(255,252,131); fill-rule: nonzero; opacity: 1;" x="-187.5" y="-187.5" rx="0" ry="0" width="375" height="375"/>
</g>
		<g transform="matrix(1 0 0 1 0 0)" id="WF Image Placeholder">
<rect style="stroke: rgb(101,28,206); stroke-opacity: 0.2; stroke-width: 2; stroke-dasharray: none; stroke-linecap: butt; stroke-dashoffset: 0; stroke-linejoin: miter; stroke-miterlimit: 4; is-custom-font: none; font-file-url: none; fill: none; fill-rule: nonzero; opacity: 1;" x="-187.5" y="-187.5" rx="0" ry="0" width="375" height="375"/>
</g>
</g>
</g>
<g transform="matrix(2.6071 0 0 2.6071 500.0002 500.0002)" id="978129">
<path style="stroke: none; stroke-width: 1; stroke-dasharray: none; stroke-linecap: butt; stroke-dashoffset: 0; stroke-linejoin: miter; stroke-miterlimit: 4; is-custom-font: none; font-file-url: none; fill: rgb(11,10,10); fill-rule: nonzero; opacity: 1;" vector-effect="non-scaling-stroke" transform=" translate(-75, -75)" d="M 75 37.5 C 81.875 37.5 87.5 43.125 87.5 50 C 87.5 56.875 81.875 62.5 75 62.5 C 68.125 62.5 62.5 56.875 62.5 50 C 62.5 43.125 68.125 37.5 75 37.5 Z M 75 100 C 91.875 100 111.25 108.062 112.5 112.5 H 37.5 C 38.9375 108 58.1875 100 75 100 Z M 75 25 C 61.1875 25 50 36.1875 50 50 C 50 63.8125 61.1875 75 75 75 C 88.8125 75 100 63.8125 100 50 C 100 36.1875 88.8125 25 75 25 Z M 75 87.5 C 58.3125 87.5 25 95.875 25 112.5 V 125 H 125 V 112.5 C 125 95.875 91.6875 87.5 75 87.5 Z" stroke-linecap="round"/>
</g>
</svg>