<svg width="48" height="48" viewBox="0 0 48 48" fill="none" xmlns="http://www.w3.org/2000/svg">
<rect width="48" height="48" rx="24" fill="#FFFC83"/>
<path d="M22.7584 24.4667C23.7851 22.6134 25.7584 21.52 26.9051 19.88C28.1184 18.16 27.4384 14.9467 23.9984 14.9467C21.7451 14.9467 20.6384 16.6534 20.1717 18.0667L16.7184 16.6134C17.6651 13.7734 20.2384 11.3334 23.9851 11.3334C27.1184 11.3334 29.2651 12.76 30.3584 14.5467C31.2917 16.08 31.8384 18.9467 30.3984 21.08C28.7984 23.44 27.2651 24.16 26.4384 25.68C26.1051 26.2934 25.9717 26.6934 25.9717 28.6667H22.1184C22.1051 27.6267 21.9451 25.9334 22.7584 24.4667ZM26.6651 34C26.6651 35.4667 25.4651 36.6667 23.9984 36.6667C22.5317 36.6667 21.3317 35.4667 21.3317 34C21.3317 32.5334 22.5317 31.3334 23.9984 31.3334C25.4651 31.3334 26.6651 32.5334 26.6651 34Z" fill="black" fill-opacity="0.5"/>
</svg>
