<svg width="26" height="26" viewBox="0 0 26 26" fill="none" xmlns="http://www.w3.org/2000/svg">
<g clip-path="url(#clip0_2730_21506)">
<path d="M4.0625 1.625C3.63152 1.625 3.2182 1.7962 2.91345 2.10095C2.6087 2.4057 2.4375 2.81902 2.4375 3.25V4.875C2.4375 5.30598 2.6087 5.7193 2.91345 6.02405C3.2182 6.3288 3.63152 6.5 4.0625 6.5H4.875V21.125C4.875 21.987 5.21741 22.8136 5.8269 23.4231C6.4364 24.0326 7.26305 24.375 8.125 24.375H17.875C18.737 24.375 19.5636 24.0326 20.1731 23.4231C20.7826 22.8136 21.125 21.987 21.125 21.125V6.5H21.9375C22.3685 6.5 22.7818 6.3288 23.0865 6.02405C23.3913 5.7193 23.5625 5.30598 23.5625 4.875V3.25C23.5625 2.81902 23.3913 2.4057 23.0865 2.10095C22.7818 1.7962 22.3685 1.625 21.9375 1.625H16.25C16.25 1.19402 16.0788 0.780698 15.774 0.475951C15.4693 0.171205 15.056 0 14.625 0L11.375 0C10.944 0 10.5307 0.171205 10.226 0.475951C9.92121 0.780698 9.75 1.19402 9.75 1.625H4.0625ZM8.9375 8.125C9.15299 8.125 9.35965 8.2106 9.51202 8.36298C9.6644 8.51535 9.75 8.72201 9.75 8.9375V20.3125C9.75 20.528 9.6644 20.7347 9.51202 20.887C9.35965 21.0394 9.15299 21.125 8.9375 21.125C8.72201 21.125 8.51535 21.0394 8.36298 20.887C8.2106 20.7347 8.125 20.528 8.125 20.3125V8.9375C8.125 8.72201 8.2106 8.51535 8.36298 8.36298C8.51535 8.2106 8.72201 8.125 8.9375 8.125ZM13 8.125C13.2155 8.125 13.4222 8.2106 13.5745 8.36298C13.7269 8.51535 13.8125 8.72201 13.8125 8.9375V20.3125C13.8125 20.528 13.7269 20.7347 13.5745 20.887C13.4222 21.0394 13.2155 21.125 13 21.125C12.7845 21.125 12.5778 21.0394 12.4255 20.887C12.2731 20.7347 12.1875 20.528 12.1875 20.3125V8.9375C12.1875 8.72201 12.2731 8.51535 12.4255 8.36298C12.5778 8.2106 12.7845 8.125 13 8.125ZM17.875 8.9375V20.3125C17.875 20.528 17.7894 20.7347 17.637 20.887C17.4847 21.0394 17.278 21.125 17.0625 21.125C16.847 21.125 16.6403 21.0394 16.488 20.887C16.3356 20.7347 16.25 20.528 16.25 20.3125V8.9375C16.25 8.72201 16.3356 8.51535 16.488 8.36298C16.6403 8.2106 16.847 8.125 17.0625 8.125C17.278 8.125 17.4847 8.2106 17.637 8.36298C17.7894 8.51535 17.875 8.72201 17.875 8.9375Z" fill="#FFFC83"/>
</g>
<defs>
<clipPath id="clip0_2730_21506">
<rect width="26" height="26" fill="white"/>
</clipPath>
</defs>
</svg>
