<svg width="103" height="54" viewBox="0 0 103 54" fill="none" xmlns="http://www.w3.org/2000/svg">
<g filter="url(#filter0_d_2686_214)">
<path fill-rule="evenodd" clip-rule="evenodd" d="M15.0857 8.83155C14.7069 11.5178 14.2499 12.8032 13.3891 13.6038C12.5665 14.3688 11.3967 14.7573 8.75471 15.1428C8.31111 15.2076 7.9723 15.2689 8.00179 15.2792C8.03128 15.2896 8.26453 15.3251 8.52013 15.3583C9.30329 15.46 10.4241 15.6588 10.9582 15.7908C12.9355 16.2794 13.8263 16.9967 14.4112 18.5714C14.6638 19.2517 14.9588 20.6701 15.1371 22.0618C15.1718 22.333 15.207 22.548 15.2154 22.5396C15.2237 22.5312 15.2855 22.1397 15.3527 21.6697C15.8681 18.0648 16.5221 16.864 18.3712 16.1275C19.0637 15.8517 20.6646 15.5072 22.0327 15.3397C22.2097 15.318 22.3786 15.2909 22.4081 15.2795C22.4376 15.2681 22.2043 15.2214 21.8898 15.1756C18.9372 14.7467 17.7693 14.3485 16.9346 13.486C16.1231 12.6474 15.7374 11.5171 15.3501 8.84218C15.284 8.38599 15.2243 8.00702 15.2173 8.0001C15.2104 7.99313 15.1512 8.36729 15.0857 8.83155ZM25.7077 16.795C23.0822 17.1278 20.7218 18.3929 19.2754 20.2425C17.6772 22.2861 17.1446 25.2157 17.8824 27.9048C18.7659 31.1252 21.5366 33.4382 25.2772 34.0779C28.0058 34.5446 31.053 33.7602 33.1686 32.0464C34.5407 30.935 35.4891 29.4791 35.9231 27.818C36.1523 26.9408 36.1879 26.6238 36.1879 25.4637C36.1879 24.2833 36.1475 23.9395 35.9033 23.045C35.2932 20.8093 33.755 18.9707 31.5635 17.8575C30.55 17.3427 29.5664 17.027 28.3538 16.8273C27.8597 16.7459 26.2501 16.7263 25.7077 16.795ZM44.7257 16.7778C43.7303 16.8517 42.5956 17.0836 41.837 17.3681C40.0776 18.0278 38.9922 19.1215 38.6149 20.6149C38.3541 21.647 38.4403 22.7308 38.8506 23.5791C39.4232 24.7632 40.5427 25.5226 42.5578 26.094C43.2474 26.2896 44.021 26.4485 45.6109 26.721C48.2879 27.18 49.0778 27.3923 49.8077 27.8491C50.4625 28.259 50.7287 28.8008 50.6449 29.5532C50.5865 30.0775 50.4154 30.4458 50.0767 30.7766C49.4902 31.3493 48.6014 31.6158 47.2706 31.6178C46.604 31.6188 46.3647 31.587 45.662 31.4042C45.1478 31.2704 44.85 31.1661 43.8209 30.7594C42.3375 30.1731 41.7079 30.01 40.9254 30.0096C40.5399 30.0094 40.3795 30.0257 40.1283 30.0906C39.7157 30.1971 39.3621 30.3459 39.0361 30.5499L38.7712 30.7157L38.7935 30.9525C38.8057 31.0828 38.8159 31.7684 38.816 32.476L38.8163 33.7626L39.0397 33.5398C39.3262 33.254 39.63 33.0366 39.9634 32.8787C40.3486 32.6963 40.5941 32.6432 41.0541 32.6432C41.7532 32.6432 42.1714 32.756 43.6336 33.3384C44.1073 33.527 44.6552 33.7374 44.8512 33.8059C45.3163 33.9685 46.1104 34.167 46.5378 34.2275C46.9524 34.2862 48.0313 34.2853 48.5218 34.2258C51.0308 33.9215 52.8303 32.7346 53.4597 30.9688C53.6456 30.4472 53.7223 30.0394 53.7455 29.4484C53.8248 27.4342 52.8466 26.0735 50.7167 25.2354C49.7382 24.8503 48.7262 24.6127 46.4127 24.2252C45.5476 24.0803 44.7111 23.9352 44.5538 23.9028C42.8461 23.5508 41.9958 23.1241 41.6676 22.4542C41.5581 22.2308 41.551 22.1932 41.5518 21.8387C41.5526 21.4359 41.608 21.2002 41.7679 20.919C42.5048 19.6233 44.8577 19.0958 47.7445 19.5791C49.3988 19.856 51.0125 20.4984 51.852 21.2141C51.9534 21.3007 52.0448 21.3714 52.0551 21.3714C52.0653 21.3714 52.4212 20.8696 52.846 20.2563L53.6182 19.1412L53.5366 19.0706C53.2867 18.8543 52.5231 18.3841 52.025 18.1397C50.6399 17.4603 49.039 17.0213 47.2527 16.8313C46.6066 16.7625 45.3031 16.735 44.7257 16.7778ZM56.4399 25.4637V33.7561H57.8877H59.3354V32.8605C59.3354 31.8524 59.3834 31.3711 59.5479 30.7308C59.9751 29.0668 61.0984 27.5894 62.9863 26.2084C63.1953 26.0555 63.3763 25.9304 63.3885 25.9304C63.4007 25.9304 63.4107 25.9539 63.4107 25.9826C63.4107 26.0821 63.7285 27.135 63.8934 27.5817C64.2465 28.5386 64.8656 29.6611 65.4476 30.3996C65.7791 30.8204 66.4839 31.5082 66.9139 31.8308C68.1367 32.748 69.5779 33.3274 71.2991 33.5936C72.2299 33.7376 72.6941 33.7561 75.3754 33.7561H77.9242V26.5586C77.9242 20.8244 77.9333 19.3612 77.9689 19.3614C78.1306 19.3623 78.6727 19.5321 78.9448 19.667C79.5481 19.9662 79.9485 20.3756 80.2957 21.0483C80.8069 22.0387 80.9833 23.0122 81.1773 25.9125C81.2932 27.645 81.3791 28.4154 81.5538 29.2916C82.0108 31.5825 83.0671 32.9203 84.8494 33.4654C85.4431 33.647 86.1685 33.7577 86.7436 33.7545L87.022 33.753L89.721 28.2429L92.4199 22.7329L92.4289 28.2445L92.438 33.7561H93.8857H95.3333V25.4633V17.1706L93.8821 17.18L92.4308 17.1894L88.9995 23.9381C87.1122 27.6499 85.5614 30.6936 85.5532 30.7018C85.4907 30.765 84.8975 30.2301 84.6647 29.9005C84.0129 28.978 83.739 27.7771 83.5378 24.9612C83.4078 23.1412 83.3093 22.2663 83.144 21.4626C82.6965 19.2873 81.7158 18.023 80.0535 17.4784C79.2732 17.2227 78.7072 17.1714 76.6668 17.1714H75.0287V24.1894V31.2073L74.1975 31.207C73.7404 31.2068 73.1734 31.1898 72.9374 31.1693C69.177 30.8421 66.9273 29.0473 65.9199 25.5703C65.7032 24.8224 65.6457 24.5313 65.7041 24.4772C65.7305 24.4527 66.1302 24.2057 66.5922 23.9283C68.4938 22.7867 69.3336 22.1782 70.167 21.3379C70.4718 21.0305 70.8138 20.6478 70.9271 20.4873C71.3428 19.8983 71.636 19.2248 71.774 18.5423C71.8548 18.1426 71.9041 17.4938 71.8683 17.3022L71.8439 17.1714H70.3977H68.9516V17.3304C68.9516 17.798 68.7881 18.4374 68.5452 18.92C68.1579 19.6896 67.3864 20.4813 66.2884 21.2361C65.7244 21.6238 65.3062 21.8775 63.8754 22.7C63.1774 23.1012 62.4214 23.5427 62.1953 23.681C61.2391 24.2659 60.2653 24.9645 59.666 25.4956L59.3354 25.7886V21.48V17.1714H57.8877H56.4399V25.4637ZM26.3546 19.472C25.2235 19.554 23.9997 19.976 23.0516 20.611C21.6086 21.5774 20.7435 23.0053 20.5464 24.7458C20.489 25.2531 20.5244 26.2339 20.6167 26.6897C20.9834 28.5005 22.1369 29.9531 23.8738 30.7913C25.824 31.7325 28.073 31.7138 30.0045 30.7403C30.6704 30.4047 31.092 30.0984 31.6336 29.5568C32.1325 29.0578 32.4492 28.6169 32.7184 28.0462C33.2729 26.8707 33.4186 25.487 33.1328 24.111C32.6646 21.8575 30.7826 20.1032 28.2866 19.5937C27.9246 19.5198 26.9897 19.4218 26.8051 19.4384C26.7756 19.441 26.5729 19.4561 26.3546 19.472ZM55.7203 38.4946C55.006 38.6087 54.4448 39.0006 54.1694 39.5776C53.9575 40.0216 53.9601 40.2309 54.1809 40.4765C54.3447 40.6588 54.486 40.7202 54.7421 40.7202C55.0623 40.7202 55.2684 40.5876 55.3836 40.3074C55.5144 39.9897 55.778 39.8243 56.1539 39.8243C56.5032 39.8243 56.7828 39.9824 56.9263 40.2608C57.0468 40.495 57.0186 41.1402 56.8661 41.6362C56.7376 42.0537 56.2058 42.7629 55.6484 43.2599C55.3241 43.549 54.7026 44.0178 54.2867 44.287C53.923 44.5224 53.7923 44.6904 53.767 44.9549C53.7396 45.2407 53.7827 45.3772 53.9604 45.568C54.2311 45.8585 54.191 45.8535 56.2365 45.8535C57.4932 45.8535 58.0636 45.8411 58.1615 45.8117C58.3651 45.7504 58.5727 45.5102 58.6041 45.2994C58.6518 44.9802 58.4387 44.6495 58.1299 44.5634C58.0512 44.5414 57.5936 44.5256 57.032 44.5255L56.0692 44.5253L56.6416 43.942C57.4823 43.0854 57.8395 42.6029 58.1246 41.9389C58.3417 41.4332 58.419 41.0898 58.4193 40.6304C58.4195 40.1792 58.3631 39.9405 58.1674 39.5652C57.9184 39.0876 57.4026 38.6993 56.8152 38.5475C56.5496 38.4788 55.9888 38.4518 55.7203 38.4946ZM68.9827 38.4946C68.2684 38.6087 67.7071 39.0006 67.4317 39.5776C67.2198 40.0216 67.2225 40.2309 67.4433 40.4765C67.6071 40.6588 67.7484 40.7202 68.0045 40.7202C68.3247 40.7202 68.5307 40.5876 68.646 40.3074C68.7768 39.9897 69.0404 39.8243 69.4163 39.8243C69.7656 39.8243 70.0452 39.9824 70.1886 40.2608C70.3092 40.495 70.281 41.1402 70.1284 41.6362C70 42.0537 69.4682 42.7629 68.9107 43.2599C68.5864 43.549 67.965 44.0178 67.5491 44.287C67.1854 44.5224 67.0547 44.6904 67.0294 44.9549C67.002 45.2407 67.0451 45.3772 67.2228 45.568C67.4935 45.8585 67.4533 45.8535 69.4989 45.8535C70.7556 45.8535 71.326 45.8411 71.4239 45.8117C71.6275 45.7504 71.835 45.5102 71.8665 45.2994C71.9142 44.9802 71.7011 44.6495 71.3923 44.5634C71.3136 44.5414 70.856 44.5256 70.2944 44.5255L69.3316 44.5253L69.904 43.942C70.7447 43.0854 71.1019 42.6029 71.3869 41.9389C71.6041 41.4332 71.6814 41.0898 71.6817 40.6304C71.6819 40.1792 71.6255 39.9405 71.4298 39.5652C71.1808 39.0876 70.6649 38.6993 70.0776 38.5475C69.812 38.4788 69.2512 38.4518 68.9827 38.4946ZM34.5813 38.6235C34.4007 38.6899 34.2497 38.8321 34.1654 39.015C34.1026 39.1512 34.0992 39.3156 34.0992 42.2099C34.0992 45.0847 34.1029 45.2695 34.1643 45.4051C34.2876 45.6777 34.5712 45.854 34.884 45.8525C35.1487 45.8513 35.4729 45.6119 35.5585 45.3546C35.6168 45.1789 35.6158 39.259 35.5573 39.0631C35.5325 38.98 35.4545 38.8669 35.3644 38.7835C35.1367 38.5727 34.8685 38.5179 34.5813 38.6235ZM37.5623 38.6149C37.0773 38.7909 36.9143 39.3283 37.2371 39.6874C37.4465 39.9205 37.4948 39.9304 38.4219 39.9304H39.2453V42.5133C39.2453 44.2975 39.2577 45.155 39.2856 45.2864C39.3999 45.8242 40.0971 46.0371 40.5209 45.6634C40.7943 45.4223 40.7807 45.582 40.7816 42.5958L40.7824 39.9304H41.6418C42.4242 39.9304 42.5134 39.9241 42.6382 39.8602C42.9271 39.7122 43.0787 39.4012 43.0028 39.112C42.9457 38.8943 42.8701 38.7932 42.6809 38.6815L42.5162 38.5843L40.1032 38.5764C38.2035 38.5702 37.663 38.5784 37.5623 38.6149ZM45.4563 38.6036C45.0853 38.6961 44.7339 38.9818 44.575 39.3202L44.4823 39.5176L44.4832 42.174C44.4841 44.6263 44.4891 44.8447 44.5479 45.0165C44.6777 45.396 44.9879 45.6796 45.4045 45.7998C45.5857 45.8521 45.7754 45.8578 46.9059 45.8448C48.0836 45.8313 48.2246 45.8232 48.4733 45.7544C49.4343 45.4888 49.931 44.8192 49.9332 43.7862C49.9339 43.4486 49.8324 43.0055 49.7039 42.7853C49.5978 42.6035 49.3451 42.3647 49.1598 42.2712C49.0241 42.2027 48.7667 42.1147 48.5575 42.0653C48.4509 42.0401 48.4513 42.0396 48.6294 41.9775C48.9232 41.875 49.1091 41.7656 49.2786 41.5954C49.5866 41.2861 49.7492 40.7551 49.7004 40.2176C49.6239 39.3755 49.2141 38.8988 48.3664 38.666C48.1172 38.5975 47.9812 38.5899 46.8416 38.5805C46.1477 38.5747 45.5307 38.585 45.4563 38.6036ZM62.3561 38.617C61.1083 38.862 60.3056 39.8565 60.0701 41.4495C59.8866 42.6903 60.1206 43.991 60.6795 44.8366C61.0493 45.3961 61.6464 45.8172 62.2489 45.9434C62.8602 46.0715 63.5716 45.9784 64.1033 45.7008C64.441 45.5245 64.8909 45.0969 65.0848 44.7681C65.5988 43.8961 65.8044 42.6961 65.6453 41.4959C65.5165 40.5239 65.1833 39.8016 64.6125 39.2572C64.3222 38.9802 63.918 38.7542 63.5358 38.655C63.2313 38.5759 62.6592 38.5575 62.3561 38.617ZM73.7947 38.6523C73.6626 38.71 73.4649 38.93 73.434 39.0536C73.3914 39.2242 73.4402 39.4904 73.5377 39.6187C73.727 39.8679 73.7645 39.8745 75.1057 39.8945L76.3089 39.9125L75.3113 40.9661C74.5022 41.8206 74.3137 42.0383 74.3137 42.1182C74.3137 42.3097 74.3744 42.3264 75.1359 42.3451C75.9423 42.3649 76.0742 42.3973 76.3463 42.643C76.6514 42.9185 76.7718 43.3612 76.6603 43.7982C76.525 44.3288 76.1185 44.6693 75.6211 44.6687C75.2357 44.6683 74.9543 44.5045 74.7573 44.1658C74.6036 43.9018 74.4132 43.7905 74.1171 43.7917C73.7204 43.7934 73.4392 44.0327 73.3988 44.403C73.3822 44.5543 73.3976 44.6163 73.5074 44.8431C73.7447 45.333 74.158 45.6631 74.7797 45.8591C75.0121 45.9324 75.1179 45.9432 75.6006 45.9426C76.1272 45.9419 76.17 45.9364 76.4628 45.8318C77.2204 45.5612 77.7185 45.0329 77.9656 44.2381C78.0354 44.0138 78.0493 43.891 78.0493 43.5022C78.0493 43.0884 78.038 43.001 77.9496 42.7304C77.8251 42.3496 77.5789 41.9796 77.2991 41.7529C77.0597 41.5591 76.6445 41.3723 76.3839 41.3413C76.2862 41.3297 76.2 41.3101 76.1925 41.2978C76.1849 41.2855 76.5149 40.9784 76.9258 40.6154C77.7542 39.8835 77.817 39.8015 77.817 39.4513C77.817 39.0896 77.661 38.8428 77.3344 38.6878L77.1556 38.6029L75.5291 38.604C74.2653 38.6048 73.8786 38.6156 73.7947 38.6523ZM45.8943 40.7561V41.6176H46.6921C47.5734 41.6176 47.7519 41.5884 48.0257 41.3992C48.2255 41.2612 48.3252 41.05 48.3252 40.765C48.3252 40.4038 48.2121 40.2185 47.8913 40.0542C47.6506 39.9308 47.3572 39.8951 46.5825 39.8948L45.8943 39.8945V40.7561ZM62.4704 39.9802C61.8687 40.2049 61.5355 40.8723 61.4641 41.9955C61.4031 42.9557 61.6199 43.8557 62.0162 44.2874C62.2325 44.5232 62.4407 44.6118 62.8144 44.6273C63.1085 44.6395 63.1451 44.6328 63.3558 44.5286C63.634 44.3911 63.8107 44.1996 63.9674 43.8658C64.1276 43.5247 64.1905 43.2658 64.2401 42.7423C64.2864 42.2535 64.2424 41.5555 64.141 41.1689C64.0047 40.6491 63.7054 40.2087 63.37 40.0345C63.1728 39.932 62.6791 39.9022 62.4704 39.9802ZM45.9104 42.7041C45.9009 42.7291 45.8974 43.1613 45.9026 43.6644L45.9122 44.5792L46.5556 44.5894C47.5728 44.6055 48.0004 44.5214 48.2677 44.2525C48.5633 43.955 48.5873 43.4022 48.3188 43.0751C48.1801 42.906 47.83 42.7396 47.5208 42.6957C47.1377 42.6412 45.9321 42.6475 45.9104 42.7041Z" fill="#FFFC83"/>
</g>
<defs>
<filter id="filter0_d_2686_214" x="0.540341" y="0.540341" width="102.253" height="52.9193" filterUnits="userSpaceOnUse" color-interpolation-filters="sRGB">
<feFlood flood-opacity="0" result="BackgroundImageFix"/>
<feColorMatrix in="SourceAlpha" type="matrix" values="0 0 0 0 0 0 0 0 0 0 0 0 0 0 0 0 0 0 127 0" result="hardAlpha"/>
<feOffset/>
<feGaussianBlur stdDeviation="3.72983"/>
<feComposite in2="hardAlpha" operator="out"/>
<feColorMatrix type="matrix" values="0 0 0 0 0.447059 0 0 0 0 0.847059 0 0 0 0 0.729412 0 0 0 1 0"/>
<feBlend mode="normal" in2="BackgroundImageFix" result="effect1_dropShadow_2686_214"/>
<feBlend mode="normal" in="SourceGraphic" in2="effect1_dropShadow_2686_214" result="shape"/>
</filter>
</defs>
</svg>
