<svg width="22" height="19" viewBox="0 0 22 19" fill="none" xmlns="http://www.w3.org/2000/svg">
<path d="M12.3335 0.5C7.3635 0.5 3.3335 4.53 3.3335 9.5H0.333496L4.2235 13.39L4.2935 13.53L8.3335 9.5H5.3335C5.3335 5.63 8.4635 2.5 12.3335 2.5C16.2035 2.5 19.3335 5.63 19.3335 9.5C19.3335 13.37 16.2035 16.5 12.3335 16.5C10.4035 16.5 8.6535 15.71 7.3935 14.44L5.9735 15.86C7.6035 17.49 9.8435 18.5 12.3335 18.5C17.3035 18.5 21.3335 14.47 21.3335 9.5C21.3335 4.53 17.3035 0.5 12.3335 0.5ZM11.3335 5.5V10.5L15.5835 13.02L16.3535 11.74L12.8335 9.65V5.5H11.3335Z" fill="#FFFC83"/>
</svg>
