<svg width="54" height="54" viewBox="0 0 54 54" fill="none" xmlns="http://www.w3.org/2000/svg">
<g filter="url(#filter0_d_1991_20464)">
<path d="M27.2561 29.6082C26.9306 29.9337 26.403 29.9337 26.0776 29.6082L20.2442 23.7749C19.9188 23.4494 19.9188 22.9218 20.2442 22.5964L26.0776 16.763C26.403 16.4376 26.9306 16.4376 27.2561 16.763C27.5815 17.0885 27.5815 17.6161 27.2561 17.9416L22.8453 22.3523H32.5002C32.9604 22.3523 33.3335 22.7254 33.3335 23.1856C33.3335 23.6459 32.9604 24.019 32.5002 24.019H22.8453L27.2561 28.4297C27.5815 28.7551 27.5815 29.2828 27.2561 29.6082Z" fill="#FFFC83"/>
</g>
<defs>
<filter id="filter0_d_1991_20464" x="0" y="0.518921" width="53.3335" height="53.3334" filterUnits="userSpaceOnUse" color-interpolation-filters="sRGB">
<feFlood flood-opacity="0" result="BackgroundImageFix"/>
<feColorMatrix in="SourceAlpha" type="matrix" values="0 0 0 0 0 0 0 0 0 0 0 0 0 0 0 0 0 0 127 0" result="hardAlpha"/>
<feOffset dy="4"/>
<feGaussianBlur stdDeviation="10"/>
<feComposite in2="hardAlpha" operator="out"/>
<feColorMatrix type="matrix" values="0 0 0 0 0.595833 0 0 0 0 0.97575 0 0 0 0 1 0 0 0 0.5 0"/>
<feBlend mode="normal" in2="BackgroundImageFix" result="effect1_dropShadow_1991_20464"/>
<feBlend mode="normal" in="SourceGraphic" in2="effect1_dropShadow_1991_20464" result="shape"/>
</filter>
</defs>
</svg>
