<svg width="12" height="12" viewBox="0 0 12 12" fill="none" xmlns="http://www.w3.org/2000/svg">
<path d="M8.27317 6.5C8.64817 6.5 8.97817 6.295 9.14817 5.985L10.9382 2.74C11.1232 2.41 10.8832 2 10.5032 2H3.10317L2.63317 1H0.998169V2H1.99817L3.79817 5.795L3.12317 7.015C2.75817 7.685 3.23817 8.5 3.99817 8.5H9.99817V7.5H3.99817L4.54817 6.5H8.27317ZM3.57817 3H9.65317L8.27317 5.5H4.76317L3.57817 3ZM3.99817 9C3.44817 9 3.00317 9.45 3.00317 10C3.00317 10.55 3.44817 11 3.99817 11C4.54817 11 4.99817 10.55 4.99817 10C4.99817 9.45 4.54817 9 3.99817 9ZM8.99817 9C8.44817 9 8.00317 9.45 8.00317 10C8.00317 10.55 8.44817 11 8.99817 11C9.54817 11 9.99817 10.55 9.99817 10C9.99817 9.45 9.54817 9 8.99817 9Z" fill="#FFFC83"/>
</svg>
