<svg width="20" height="20" viewBox="0 0 20 20" fill="none" xmlns="http://www.w3.org/2000/svg">
<g id="zoom_in">
<path id="Vector" d="M13.1292 11.8792H12.4709L12.2375 11.6542C13.0542 10.7042 13.5459 9.47086 13.5459 8.12919C13.5459 5.13752 11.1209 2.71252 8.12919 2.71252C5.13752 2.71252 2.71252 5.13752 2.71252 8.12919C2.71252 11.1209 5.13752 13.5459 8.12919 13.5459C9.47086 13.5459 10.7042 13.0542 11.6542 12.2375L11.8792 12.4709V13.1292L16.0459 17.2875L17.2875 16.0459L13.1292 11.8792ZM8.12919 11.8792C6.05419 11.8792 4.37919 10.2042 4.37919 8.12919C4.37919 6.05419 6.05419 4.37919 8.12919 4.37919C10.2042 4.37919 11.8792 6.05419 11.8792 8.12919C11.8792 10.2042 10.2042 11.8792 8.12919 11.8792ZM8.54586 6.04586H7.71252V7.71252H6.04586V8.54586H7.71252V10.2125H8.54586V8.54586H10.2125V7.71252H8.54586V6.04586Z" fill="#1D0263"/>
</g>
</svg>
